<?xml version="1.0" encoding="UTF-8"?> <svg xmlns="http://www.w3.org/2000/svg" id="Слой_1" data-name="Слой 1" viewBox="0 0 200 200"> <defs> <style>.cls-2{fill:#fff;}</style> </defs> <title>kidsМонтажная область 1 копия</title>  <path class="cls-2" d="M161.6,113.09a17.87,17.87,0,0,0-17.39-17.85,48.91,48.91,0,0,0-44.77-31c1.64-2,3.23-4.6,3.29-7,.13-5.22-3.14-7.12-5.52-8.51C95,47.48,94,46.78,94,44.69c0-4.1,3.92-4.48,4.7-4.51A2.08,2.08,0,1,0,98.57,36c-3,.09-8.75,2-8.73,8.69,0,4.55,3,6.33,5.27,7.62,2.39,1.39,3.53,2.18,3.46,4.82,0,2-2.93,5.43-5.1,7.41a48.93,48.93,0,0,0-40.13,30.7,17.85,17.85,0,0,0,0,35.67,48.8,48.8,0,0,0,90.86,0A17.9,17.9,0,0,0,161.6,113.09Zm-121.16,0a13.71,13.71,0,0,1,11.42-13.5,48.58,48.58,0,0,0,0,27A13.73,13.73,0,0,1,40.44,113.09Zm58.33,44.66a44.66,44.66,0,1,1,44.67-44.66A44.71,44.71,0,0,1,98.77,157.75Zm46.9-31.1a48.6,48.6,0,0,0,0-27.12,13.7,13.7,0,0,1,0,27.12Z"></path> <path class="cls-2" d="M86,107.81a2.08,2.08,0,0,0,4.16,0,9.67,9.67,0,0,0-19.34,0,2.08,2.08,0,0,0,4.16,0,5.51,5.51,0,0,1,11,0Z"></path> <path class="cls-2" d="M116.57,98.14a9.68,9.68,0,0,0-9.67,9.67,2.08,2.08,0,0,0,4.16,0,5.51,5.51,0,1,1,11,0,2.08,2.08,0,0,0,4.16,0A9.68,9.68,0,0,0,116.57,98.14Z"></path> <path class="cls-2" d="M118.21,121.51a2.08,2.08,0,0,0-2.08,2.08,17.36,17.36,0,1,1-34.71,0,2.08,2.08,0,0,0-4.16,0,21.52,21.52,0,1,0,43,0A2.08,2.08,0,0,0,118.21,121.51Z"></path> </svg> 